<mxfile host="app.diagrams.net" modified="2022-12-06T06:12:40.443Z" agent="5.0 (Windows NT 10.0; Win64; x64) AppleWebKit/537.36 (KHTML, like Gecko) Chrome/107.0.0.0 Safari/537.36 Edg/107.0.1418.26" etag="Xz0UY2U3788TFw692mme" version="20.6.0" type="github">
  <diagram id="C5RBs43oDa-KdzZeNtuy" name="Page-1">
    <mxGraphModel dx="1026" dy="565" grid="1" gridSize="10" guides="1" tooltips="1" connect="1" arrows="1" fold="1" page="1" pageScale="1" pageWidth="827" pageHeight="1169" math="0" shadow="0">
      <root>
        <mxCell id="WIyWlLk6GJQsqaUBKTNV-0" />
        <mxCell id="WIyWlLk6GJQsqaUBKTNV-1" parent="WIyWlLk6GJQsqaUBKTNV-0" />
        <mxCell id="cSTLeBi9jmK-zGmyKdPC-5" value="系统框图" style="swimlane;whiteSpace=wrap;html=1;" vertex="1" parent="WIyWlLk6GJQsqaUBKTNV-1">
          <mxGeometry x="69" y="50" width="741" height="870" as="geometry" />
        </mxCell>
        <mxCell id="cSTLeBi9jmK-zGmyKdPC-8" value="APP" style="rounded=0;whiteSpace=wrap;html=1;align=left;" vertex="1" parent="cSTLeBi9jmK-zGmyKdPC-5">
          <mxGeometry x="21" y="70" width="669" height="120" as="geometry" />
        </mxCell>
        <mxCell id="cSTLeBi9jmK-zGmyKdPC-9" value="BSP" style="rounded=0;whiteSpace=wrap;html=1;align=left;" vertex="1" parent="cSTLeBi9jmK-zGmyKdPC-5">
          <mxGeometry x="21" y="270" width="669" height="120" as="geometry" />
        </mxCell>
        <mxCell id="cSTLeBi9jmK-zGmyKdPC-10" value="Machine" style="rounded=0;whiteSpace=wrap;html=1;align=left;" vertex="1" parent="cSTLeBi9jmK-zGmyKdPC-5">
          <mxGeometry x="21" y="470" width="669" height="120" as="geometry" />
        </mxCell>
        <mxCell id="cSTLeBi9jmK-zGmyKdPC-11" value="Thirdparty" style="rounded=0;whiteSpace=wrap;html=1;align=left;" vertex="1" parent="cSTLeBi9jmK-zGmyKdPC-5">
          <mxGeometry x="21" y="670" width="669" height="120" as="geometry" />
        </mxCell>
        <mxCell id="cSTLeBi9jmK-zGmyKdPC-12" value="" style="rounded=1;whiteSpace=wrap;html=1;strokeColor=#b85450;fillColor=#f8cecc;" vertex="1" parent="cSTLeBi9jmK-zGmyKdPC-5">
          <mxGeometry x="61" y="100" width="120" height="60" as="geometry" />
        </mxCell>
        <mxCell id="cSTLeBi9jmK-zGmyKdPC-19" value="" style="rounded=1;whiteSpace=wrap;html=1;strokeColor=#b85450;fillColor=#f8cecc;" vertex="1" parent="cSTLeBi9jmK-zGmyKdPC-5">
          <mxGeometry x="221" y="100" width="120" height="60" as="geometry" />
        </mxCell>
        <mxCell id="cSTLeBi9jmK-zGmyKdPC-20" value="" style="rounded=1;whiteSpace=wrap;html=1;strokeColor=#b85450;fillColor=#f8cecc;" vertex="1" parent="cSTLeBi9jmK-zGmyKdPC-5">
          <mxGeometry x="391" y="100" width="120" height="60" as="geometry" />
        </mxCell>
        <mxCell id="cSTLeBi9jmK-zGmyKdPC-21" value="" style="rounded=1;whiteSpace=wrap;html=1;strokeColor=#b85450;fillColor=#f8cecc;" vertex="1" parent="cSTLeBi9jmK-zGmyKdPC-5">
          <mxGeometry x="551" y="100" width="120" height="60" as="geometry" />
        </mxCell>
        <mxCell id="cSTLeBi9jmK-zGmyKdPC-23" value="" style="rounded=1;whiteSpace=wrap;html=1;strokeColor=#82b366;fillColor=#d5e8d4;" vertex="1" parent="cSTLeBi9jmK-zGmyKdPC-5">
          <mxGeometry x="61" y="310" width="120" height="60" as="geometry" />
        </mxCell>
        <mxCell id="cSTLeBi9jmK-zGmyKdPC-24" value="" style="rounded=1;whiteSpace=wrap;html=1;strokeColor=#82b366;fillColor=#d5e8d4;" vertex="1" parent="cSTLeBi9jmK-zGmyKdPC-5">
          <mxGeometry x="221" y="310" width="120" height="60" as="geometry" />
        </mxCell>
        <mxCell id="cSTLeBi9jmK-zGmyKdPC-25" value="" style="rounded=1;whiteSpace=wrap;html=1;strokeColor=#82b366;fillColor=#d5e8d4;" vertex="1" parent="cSTLeBi9jmK-zGmyKdPC-5">
          <mxGeometry x="391" y="310" width="120" height="60" as="geometry" />
        </mxCell>
        <mxCell id="cSTLeBi9jmK-zGmyKdPC-26" value="" style="rounded=1;whiteSpace=wrap;html=1;strokeColor=#82b366;fillColor=#d5e8d4;" vertex="1" parent="cSTLeBi9jmK-zGmyKdPC-5">
          <mxGeometry x="551" y="310" width="120" height="60" as="geometry" />
        </mxCell>
        <mxCell id="cSTLeBi9jmK-zGmyKdPC-27" value="" style="rounded=1;whiteSpace=wrap;html=1;strokeColor=#d6b656;fillColor=#fff2cc;" vertex="1" parent="cSTLeBi9jmK-zGmyKdPC-5">
          <mxGeometry x="71" y="500" width="120" height="60" as="geometry" />
        </mxCell>
        <mxCell id="cSTLeBi9jmK-zGmyKdPC-28" value="" style="rounded=1;whiteSpace=wrap;html=1;strokeColor=#d6b656;fillColor=#fff2cc;" vertex="1" parent="cSTLeBi9jmK-zGmyKdPC-5">
          <mxGeometry x="221" y="500" width="120" height="60" as="geometry" />
        </mxCell>
        <mxCell id="cSTLeBi9jmK-zGmyKdPC-29" value="" style="rounded=1;whiteSpace=wrap;html=1;strokeColor=#d6b656;fillColor=#fff2cc;" vertex="1" parent="cSTLeBi9jmK-zGmyKdPC-5">
          <mxGeometry x="391" y="500" width="120" height="60" as="geometry" />
        </mxCell>
        <mxCell id="cSTLeBi9jmK-zGmyKdPC-30" value="" style="rounded=1;whiteSpace=wrap;html=1;strokeColor=#d6b656;fillColor=#fff2cc;" vertex="1" parent="cSTLeBi9jmK-zGmyKdPC-5">
          <mxGeometry x="551" y="500" width="120" height="60" as="geometry" />
        </mxCell>
        <mxCell id="cSTLeBi9jmK-zGmyKdPC-31" value="" style="rounded=1;whiteSpace=wrap;html=1;strokeColor=#6c8ebf;fillColor=#dae8fc;" vertex="1" parent="cSTLeBi9jmK-zGmyKdPC-5">
          <mxGeometry x="81" y="700" width="120" height="60" as="geometry" />
        </mxCell>
        <mxCell id="cSTLeBi9jmK-zGmyKdPC-50" value="" style="rounded=1;whiteSpace=wrap;html=1;strokeColor=#6c8ebf;fillColor=#dae8fc;" vertex="1" parent="cSTLeBi9jmK-zGmyKdPC-5">
          <mxGeometry x="221" y="700" width="120" height="60" as="geometry" />
        </mxCell>
        <mxCell id="cSTLeBi9jmK-zGmyKdPC-51" value="" style="rounded=1;whiteSpace=wrap;html=1;strokeColor=#6c8ebf;fillColor=#dae8fc;" vertex="1" parent="cSTLeBi9jmK-zGmyKdPC-5">
          <mxGeometry x="381" y="700" width="120" height="60" as="geometry" />
        </mxCell>
        <mxCell id="cSTLeBi9jmK-zGmyKdPC-52" value="" style="rounded=1;whiteSpace=wrap;html=1;strokeColor=#6c8ebf;fillColor=#dae8fc;" vertex="1" parent="cSTLeBi9jmK-zGmyKdPC-5">
          <mxGeometry x="541" y="700" width="120" height="60" as="geometry" />
        </mxCell>
      </root>
    </mxGraphModel>
  </diagram>
</mxfile>
